<!-- Clean 3D monogram: option A -->
<svg xmlns="http://www.w3.org/2000/svg" viewBox="0 0 600 600" width="600" height="600" role="img" aria-label="Jenni 3D Monogram">
  <defs>
    <linearGradient id="g1" x1="0" x2="1" y1="0" y2="1">
      <stop offset="0" stop-color="#FF8FB2"/>
      <stop offset="1" stop-color="#C3007A"/>
    </linearGradient>
    <linearGradient id="g2" x1="0" x2="1" y1="0" y2="1">
      <stop offset="0" stop-color="#9a1f66"/>
      <stop offset="1" stop-color="#3a0029"/>
    </linearGradient>
    <filter id="shadow" x="-50%" y="-50%" width="200%" height="200%">
      <feOffset dx="0" dy="18" in="SourceAlpha" result="o"/>
      <feGaussianBlur stdDeviation="18" in="o" result="b"/>
      <feColorMatrix values="0 0 0 0 0  0 0 0 0 0  0 0 0 0 0  0 0 0 0.35" in="b"/>
      <feMerge><feMergeNode in="b"/><feMergeNode in="SourceGraphic"/></feMerge>
    </filter>
    <style>
      <![CDATA[
        .wrap { transform-origin: center; animation: float 5s ease-in-out infinite; }
        @keyframes float { 0%{transform:translateY(0)}50%{transform:translateY(-8px)}100%{transform:translateY(0)} }
      ]]>
    </style>
  </defs>

  <rect width="100%" height="100%" fill="#0b0710"/>
  <g class="wrap" transform="translate(300,300)" filter="url(#shadow)">
    <!-- extruded J layers -->
    <g transform="translate(12,18)">
      <path d="M-90,-120 L40,-120 L40,-40 L10,-40 L10,120 L-50,120 L-50,-40 L-90,-40 Z" fill="url(#g2)" opacity="0.95"/>
    </g>

    <!-- front face -->
    <path d="M-100,-120 L30,-120 L30,-30 L5,-30 L5,110 L-50,110 L-50,-30 L-100,-30 Z" fill="url(#g1)"/>

    <!-- highlight -->
    <path d="M-60,-100 L10,-100 L10,-30 L-10,-30 L-10,90 L-30,90 L-30,-30 L-60,-30 Z" fill="rgba(255,255,255,0.06)"/>

    <!-- thin outline -->
    <path d="M-100,-120 L30,-120 L30,-30 L5,-30 L5,110 L-50,110 L-50,-30 L-100,-30 Z" fill="none" stroke="rgba(255,255,255,0.06)" stroke-width="2" stroke-linejoin="round"/>
  </g>
</svg>
